<svg viewBox="0 0 94.35 126.5" xmlns="http://www.w3.org/2000/svg" xmlns:xlink="http://www.w3.org/1999/xlink" id="Layer_1" overflow="hidden"><defs></defs><path d="M143.67 254C143.097 253.506 143.032 252.641 143.526 252.068 143.697 251.87 143.92 251.725 144.17 251.65L144.69 251.53C144.869 251.209 145.161 250.966 145.51 250.85 146.561 250.508 147.668 250.372 148.77 250.45 149.85 250.1 150.93 249.71 151.98 249.28 154.29 248.34 156.65 247.39 159.18 247.48 160.503 246.788 161.912 246.274 163.37 245.95 163.664 245.882 163.973 245.91 164.25 246.03L164.37 246.03 164.87 245.22C165.2 244.73 165.56 244.22 165.87 243.79 166.35 243.17 166.87 242.51 167.72 242.5 168.467 242.511 169.069 243.113 169.08 243.86 169.044 244.416 168.947 244.966 168.79 245.5 169.365 245.325 169.975 245.305 170.56 245.44 171.348 245.629 171.983 246.211 172.24 246.98 172.414 247.573 172.266 248.213 171.85 248.67 171.576 248.955 171.23 249.162 170.85 249.27L170.21 249.47C170.558 249.625 170.893 249.809 171.21 250.02 171.722 250.36 172.186 250.767 172.59 251.23 172.83 251.503 173.001 251.828 173.09 252.18 173.243 252.83 172.966 253.505 172.4 253.86 171.895 254.109 171.326 254.197 170.77 254.11 170.937 254.231 171.097 254.362 171.25 254.5 171.381 254.619 171.477 254.771 171.53 254.94 171.62 255.098 171.662 255.279 171.65 255.46L171.6 255.82C171.561 255.995 171.479 256.156 171.36 256.29 171.297 256.389 171.212 256.472 171.11 256.53 170.98 256.649 170.822 256.732 170.65 256.77L170.29 256.77C170.048 256.772 169.81 256.71 169.6 256.59 169.52 256.59 169.46 256.49 169.38 256.45 169.502 257.151 169.068 257.828 168.38 258.01 167.838 258.138 167.27 257.943 166.92 257.51 166.285 257.273 165.666 256.993 165.07 256.67 164.832 256.533 164.601 256.383 164.38 256.22 164.295 256.295 164.201 256.358 164.1 256.41L158.1 258.97 157.8 259.11C157.703 259.155 157.603 259.192 157.5 259.22L147.38 263.51C147.38 264.24 146.65 264.75 146.02 264.8 145.157 264.821 144.385 264.265 144.13 263.44 143.983 262.974 144.124 262.464 144.49 262.14L143.85 257.3C143.79 256.81 143.73 256.3 143.66 255.84 143.544 255.305 143.517 254.754 143.58 254.21 143.62 254.14 143.65 254.06 143.67 254Z" fill="#FFE3CB" transform="translate(-80.35 -162.5)"/><path d="M88 282.14C88.85 280.49 90.07 279.07 90.92 277.42 91.77 275.77 92.56 273.95 93.37 272.21L97.37 263.57C97.6411 262.687 97.9753 261.825 98.37 260.99 98.6095 260.416 98.9042 259.867 99.25 259.35L99.33 259.26C99.3614 259.119 99.4154 258.984 99.49 258.86 101.1 256.25 102.96 253.54 106.08 252.7 106.143 252.696 106.207 252.696 106.27 252.7 106.78 251.83 107.56 251.22 108.66 251.92 109.314 252.312 109.526 253.159 109.134 253.813 109.095 253.879 109.05 253.942 109 254L108.47 254.55C108.394 254.89 108.294 255.224 108.17 255.55 108.04 256.04 107.9 256.55 107.76 257.03 107.49 258.03 107.21 259.03 106.93 260.03 106.95 260.169 106.95 260.311 106.93 260.45 106.88 260.69 106.82 260.92 106.76 261.15 105.76 265.15 103.76 268.99 102.14 272.75 100.534 276.689 98.3534 280.369 95.67 283.67 95.4853 283.895 95.2266 284.048 94.94 284.1L94.74 284.27C94.2989 284.6 93.727 284.7 93.2 284.54 93.0067 284.631 92.7927 284.669 92.58 284.65L92.22 284.59 92.22 284.59C91.2233 284.31 90.195 284.159 89.16 284.14 88.404 284.109 87.8162 283.471 87.8471 282.715 87.8553 282.515 87.9075 282.318 88 282.14Z" fill="#FFE3CB" transform="translate(-80.35 -162.5)"/><path d="M85 218.35C85.2817 217.296 85.7092 216.286 86.27 215.35 86.9911 213.955 88.0717 212.778 89.4 211.94L89.65 211.74C88.65 207.79 88.65 203.8 91.16 199.8 94.8246 194.254 99.5236 189.467 105 185.7 110.121 182.07 116.323 180.286 122.59 180.64 125.171 180.819 127.708 181.399 130.11 182.36 131.009 182.354 131.908 182.408 132.8 182.52L133.31 182.22C151.61 172.47 163.36 195.46 166.37 209.8 166.808 211.821 166.774 213.915 166.27 215.92 168.879 217.38 170.782 219.838 171.54 222.73 172.356 225.736 171.938 228.943 170.38 231.64 168.754 234.153 166.315 236.031 163.47 236.96 163.005 237.122 162.531 237.255 162.05 237.36 162.365 237.829 162.645 238.321 162.89 238.83L162.84 238.83C160.558 240.49 158.492 242.428 156.69 244.6 156.316 244.538 155.932 244.566 155.57 244.68 153.238 245.501 151.015 246.602 148.95 247.96 146.84 249.23 144.1 249.79 142.13 251.17 139.04 253.31 139.82 258.91 140.2 262.17 140.22 262.315 140.25 262.459 140.29 262.6 138.242 263.684 135.907 264.104 133.61 263.8 133.201 265.91 132.154 267.844 130.61 269.34 129.114 270.761 127.29 271.792 125.3 272.34 124.733 272.597 124.139 272.792 123.53 272.92L123.53 272.92C120.27 273.19 117.03 273.61 113.79 274.04 111.614 274.497 109.402 274.768 107.18 274.85 108.26 272.92 109.25 270.94 110.28 268.99 112 265.76 114.03 262.77 115.28 259.3 116.12 256.89 113.23 255.25 111.28 256.22L111.22 256.22C111.923 254.956 111.624 253.371 110.51 252.45 111.042 251.939 111.603 251.458 112.19 251.01L113.28 250.19C112.28 249.78 112.91 250.28 111.97 249.71 111.97 249.71 108.38 248.82 108.35 248.8 102 246.08 98.9 242.64 95.65 237.01 95.16 236.17 93.17 233.41 92.92 232.47 91.67 232.23 91.79 232.59 90.65 231.93 90.1637 231.676 89.7104 231.364 89.3 231 88.89 230.69 88.48 230.38 88.08 230.06 87.7287 229.688 87.4139 229.282 87.14 228.85 86.82 228.45 86.51 228.05 86.21 227.64 85.3483 226.289 84.849 224.74 84.76 223.14 84.4093 221.551 84.4921 219.896 85 218.35Z" fill="#FFE3CB" transform="translate(-80.35 -162.5)"/><path d="M98.51 279.77C99.7086 277.973 100.794 276.102 101.76 274.17 101.956 273.81 102.066 273.41 102.08 273 103.614 270.515 104.916 267.894 105.97 265.17 107.068 262.486 107.769 259.656 108.05 256.77 108.05 254.941 108.695 253.171 109.87 251.77 111.23 250.1 113.63 250.77 114.73 252.31 115.27 252.43 115.91 255.54 116.37 256.15 118.26 258.67 120.16 260.76 122.15 261.73 125.41 264.38 128.99 262.73 131.8 259.91 132.893 259.142 133.811 258.15 134.49 257 134.726 256.795 134.917 256.543 135.05 256.26 135.461 255.453 135.796 254.609 136.05 253.74 136.076 253.625 136.092 253.508 136.1 253.39 136.207 252.987 136.277 252.576 136.31 252.16 136.315 252.093 136.315 252.027 136.31 251.96 136.58 251.709 136.942 251.582 137.31 251.61 137.45 251.32 138.6 251.78 138.8 251.61 139.206 251.823 139.646 251.961 140.1 252.02 140.62 252.09 141.1 252.12 141.68 252.17L141.82 252.17 142.03 252.17 142.35 252.27C142.41 252.33 142.7 251.54 142.76 251.59 143 251.86 144.23 251.48 144.57 251.59 144.91 251.7 143.84 253.18 144.07 253.22 144.224 253.719 144.251 254.248 144.15 254.76 144.043 255.607 144.122 256.467 144.38 257.28 144.148 257.941 144.213 258.671 144.56 259.28L144.56 259.36C144.402 259.953 144.338 260.567 144.37 261.18 144.37 261.56 144.46 261.95 144.51 262.33 144.51 262.45 144.57 262.74 144.57 262.72 144.416 263.094 144.239 263.458 144.04 263.81 144.83 268.03 145.62 269.17 146.41 273.39 146.57 273.85 148.05 276.57 148.23 277.02 148.41 277.47 148.61 278.02 148.82 278.48 148.733 278.863 148.761 279.263 148.9 279.63 149.32 280.63 149.63 281.72 150.04 282.75 150.249 284.364 149.681 285.981 148.51 287.11 146.74 288.84 144.65 288.18 142.89 286.99 142.271 288.46 140.706 289.295 139.14 288.99 135.097 288.14 130.981 287.681 126.85 287.62 126.143 287.603 125.461 287.353 124.91 286.91 123.794 287.387 122.508 287.239 121.53 286.52 120.438 286.793 119.281 286.525 118.42 285.8L118.33 286.01C117.09 288.77 113.77 287.68 112.77 285.47L111.77 286.92C110.19 289.31 105.64 288.69 105.85 285.39L105.21 286.22C103.77 288.06 101.56 287.29 100.5 285.71 98.71 287.37 96.34 286.12 95.63 284.23 96.7158 282.828 97.6793 281.336 98.51 279.77Z" fill="#F2DB68" transform="translate(-80.35 -162.5)"/><path d="M81.36 250.73C81.4376 250.947 81.5382 251.155 81.66 251.35 81.7566 251.345 81.8534 251.345 81.95 251.35 83.6779 251.418 85.4084 251.372 87.13 251.21 87.2475 251.104 87.3578 250.991 87.46 250.87L87.68 251.16C90.994 250.72 94.3388 250.556 97.68 250.67 99.8305 250.8 101.971 251.06 104.09 251.45 107.63 252.16 109.99 252.35 113.09 251.28 113.134 251.119 113.167 250.955 113.19 250.79 111.963 250.469 110.801 249.934 109.76 249.21 109.58 249.197 109.405 249.142 109.25 249.05 108.568 248.709 107.85 248.444 107.11 248.26 106.222 247.935 105.384 247.488 104.62 246.93 103.044 245.869 101.565 244.671 100.2 243.35 98.1567 242.052 96.5288 240.196 95.51 238 95.4104 237.826 95.3522 237.631 95.34 237.43L95.34 237.43C95.1881 237.167 95.1416 236.856 95.21 236.56 94.1178 235.072 93.4914 233.294 93.41 231.45 88.82 230 84 224.75 86.06 219.91 86.9479 217.534 89.5057 216.231 91.95 216.91 91.61 210.41 98.16 202.7 104.72 201.66 105.132 201.59 105.555 201.624 105.95 201.76 109.77 200.26 114.05 199.69 117.65 197.54 121.864 194.976 125.218 191.212 127.28 186.73 128.649 189.097 130.201 191.354 131.92 193.48 135.39 197.79 140.12 201.28 145.68 202.15 147.036 202.341 148.415 202.284 149.75 201.98 150.12 202.09 150.48 202.18 150.84 202.26 153.96 209.32 157.84 215.71 165.57 218.36 165.66 219 165.74 219.64 165.82 220.28 169.7 221.37 169.64 226.35 167.97 229.66 166.53 232.5 163.62 234.42 160.91 233.83 160.607 234.69 160.211 235.515 159.73 236.29 158.45 240.29 154.93 243.73 151.02 245.69 151.29 246.55 140.73 251.44 141.78 251.6 141.87 251.6 154.39 248.87 154.48 248.88 155.61 248.49 158.03 248.01 158.11 247.97 159.797 247.222 161.556 246.649 163.36 246.26L163.42 246.26C163.472 246.243 163.519 246.216 163.56 246.18L163.49 246.24C163.952 245.861 164.532 245.656 165.13 245.66 165.707 244.742 166.331 243.854 167 243 167.22 242.78 167.519 242.657 167.83 242.66 168.139 242.666 168.435 242.787 168.66 243 168.875 243.223 168.996 243.52 169 243.83 168.985 244.138 168.865 244.431 168.66 244.66L168.57 244.77C168.557 245.067 168.513 245.362 168.44 245.65L168.57 245.75 168.67 245.75C169.246 245.595 169.854 245.595 170.43 245.75 170.963 245.916 171.459 246.185 171.89 246.54 172.373 246.184 172.67 245.629 172.7 245.03 173.49 233.44 174.5 220.71 174.01 208.48 173.6 198.1 172.54 187.69 166.07 179.15 158.43 169.08 148.95 163.72 137.2 163.59 132.67 162.69 125.2 164.59 121.78 165.41 118.202 166.315 114.742 167.634 111.47 169.34 107.042 168.92 102.582 169.701 98.56 171.6 84.82 178 81.14 195.37 81.45 209.14 81.4633 210.382 81.7828 211.601 82.38 212.69 82.0459 213.605 81.8931 214.577 81.93 215.55 81.99 218.05 80.93 219.12 80.99 221.63 80.36 223.45 81.54 226.83 81.57 228.87 80.9749 233.306 80.9044 237.797 81.36 242.25L81.36 242.25C80.75 245.08 80.38 248 81.36 250.73ZM96.36 205.22C96.36 204.84 96.36 204.47 96.36 204.09 96.588 204.185 96.8218 204.265 97.06 204.33 96.88 204.62 96.64 204.92 96.39 205.22Z" fill="#42210B" transform="translate(-80.35 -162.5)"/><path d="M127.6 184.21C129.79 188.91 132.36 193.55 136.1 197.14 139.84 200.73 144.94 203.19 150.1 202.79" stroke="#2D0E0B" stroke-linecap="round" stroke-linejoin="round" fill="none" transform="translate(-80.35 -162.5)"/><path d="M140.62 183.8C141.07 187.32 142.73 190.57 144.52 193.63 150.833 204.402 159.105 213.899 168.91 221.63" stroke="#2D0E0B" stroke-linecap="round" stroke-linejoin="round" fill="none" transform="translate(-80.35 -162.5)"/><path d="M127.53 182.42C128.02 187.84 124.53 193.01 120.02 196.06 115.51 199.11 110.09 200.46 104.8 201.75" stroke="#2D0E0B" stroke-linecap="round" stroke-linejoin="round" fill="none" transform="translate(-80.35 -162.5)"/><path d="M112.81 181.53C113.57 188.13 109.93 194.53 105.33 199.29 100.73 204.05 95.11 207.79 90.45 212.52" stroke="#2D0E0B" stroke-linecap="round" stroke-linejoin="round" fill="none" transform="translate(-80.35 -162.5)"/><path d="M115.7 168C131.79 158.18 154.9 163.54 165.35 179 178.51 198.51 173.52 223.45 172.05 246.23" stroke="#2D0E0B" stroke-linecap="round" stroke-linejoin="round" fill="none" transform="translate(-80.35 -162.5)"/><path d="M115.46 171.09C109.57 167.66 96.11 170 90.37 177.92 84.63 185.84 83.15 196.21 82.37 206.12 81.29 219.35 81.02 232.64 80.88 245.91 80.88 250.91 82.54 251.54 82.38 251.11" stroke="#2D0E0B" stroke-linecap="round" stroke-linejoin="round" fill="none" transform="translate(-80.35 -162.5)"/><path d="M93.06 218.08C91.26 213.72 86.4 217.75 85.86 220.65 85 225.17 88 229 91.76 231.07" stroke="#2D0E0B" stroke-linecap="round" stroke-linejoin="round" fill="none" transform="translate(-80.35 -162.5)"/><path d="M168.8 223C169.667 225.685 169.4 228.607 168.06 231.09 166.641 233.551 163.875 234.91 161.06 234.53" stroke="#2D0E0B" stroke-linecap="round" stroke-linejoin="round" fill="none" transform="translate(-80.35 -162.5)"/><path d="M161.12 234.74C158.75 240.82 153.64 245.59 147.75 248.42 141.86 251.25 135.27 252.3 128.75 252.42 121.2 252.6 113.46 251.58 106.75 248.14 100.04 244.7 94.42 238.58 92.82 231.2" stroke="#2D0E0B" stroke-linecap="round" stroke-linejoin="round" fill="none" transform="translate(-80.35 -162.5)"/><path d="M164.41 246.18 166.5 243.18C166.661 242.904 166.897 242.678 167.18 242.53 167.814 242.381 168.45 242.774 168.599 243.408 168.603 243.425 168.607 243.443 168.61 243.46 168.688 244.105 168.587 244.758 168.32 245.35 169.061 245.497 169.815 245.567 170.57 245.56 171.501 245.704 172.205 246.479 172.26 247.42 172.258 248.265 171.571 248.948 170.726 248.946 170.633 248.946 170.541 248.937 170.45 248.92L171.96 250.34C172.437 250.732 172.831 251.214 173.12 251.76 173.414 252.318 173.359 252.996 172.98 253.5 172.39 254.18 171.3 253.99 170.44 253.74 170.7 254.2 171.13 254.53 171.44 254.96 171.774 255.382 171.774 255.978 171.44 256.4 171.046 256.66 170.534 256.66 170.14 256.4 169.758 256.134 169.353 255.903 168.93 255.71 169.303 256.349 169.088 257.17 168.449 257.543 168.305 257.627 168.145 257.684 167.98 257.71 167.66 257.704 167.345 257.625 167.06 257.48 166.172 257.096 165.389 256.502 164.78 255.75" stroke="#2D0E0B" stroke-linecap="round" stroke-linejoin="round" fill="none" transform="translate(-80.35 -162.5)"/><path d="M164.14 245.77C162.8 246.44 141.32 252.92 136.78 252.02" stroke="#2D0E0B" stroke-linecap="round" stroke-linejoin="round" fill="none" transform="translate(-80.35 -162.5)"/><path d="M165.15 255.63C159.097 258.09 153.16 260.807 147.34 263.78L145.13 264.93" stroke="#2D0E0B" stroke-linecap="round" stroke-linejoin="round" fill="none" transform="translate(-80.35 -162.5)"/><path d="M109.25 251.35C107.434 262.775 102.964 273.615 96.2 283" stroke="#2D0E0B" stroke-linecap="round" stroke-linejoin="round" fill="none" transform="translate(-80.35 -162.5)"/><path d="M119.6 229.44C119.83 228.635 120.563 228.078 121.4 228.07 121.754 228.08 122.099 228.183 122.4 228.37L122.58 228.32C123.824 228.15 125.086 228.15 126.33 228.32 127.77 228.4 131.8 227.24 131.8 228.88 131.8 229.79 131.13 232 131.09 233.19 131.05 234.38 131.03 236.84 130.89 237.96 130.56 240.69 130.64 241.08 129.08 243.4 128.5 244.26 126.39 246.62 125.45 246.12 125.23 246 125.64 245.38 125.45 245.21 124.825 244.956 124.22 244.656 123.64 244.31 123.06 244.45 123.2 244.36 122.64 243.89 120.941 242.258 119.914 240.05 119.76 237.7 119.655 236.075 119.655 234.445 119.76 232.82 119.456 231.719 119.401 230.565 119.6 229.44Z" fill="#B5272D" transform="translate(-80.35 -162.5)"/><path d="M87.65 282.13C88.41 281.13 89.21 280.18 89.93 279.13 93.3 274.36 94.7 268.52 97.1 263.2 99.5 257.88 103.55 252.65 109.29 251.62L115.01 251.08C115.01 254.71 117.35 257.91 119.01 259.69 120.677 261.527 122.948 262.705 125.41 263.01 127.718 263.307 130.039 262.576 131.76 261.01 135.48 258.01 136.97 251.66 136.97 251.66 138.11 251.36 143.97 251.06 143.97 251.06 143.673 256.106 143.928 261.169 144.73 266.16 145.055 267.771 145.489 269.358 146.03 270.91 147.61 275.75 148.43 280.51 150.31 285.2" stroke="#2D0E0B" stroke-linecap="round" stroke-linejoin="round" fill="none" transform="translate(-80.35 -162.5)"/><path d="M131.28 228.24 131.37 234.04C131.37 237.66 131.31 241.69 128.78 244.28 128.062 245.09 127.05 245.579 125.97 245.64 124.748 245.528 123.626 244.917 122.87 243.95 121.303 242.1 120.285 239.848 119.93 237.45 119.587 235.063 119.463 232.65 119.56 230.24 119.516 229.772 119.632 229.303 119.89 228.91 120.325 228.527 120.905 228.352 121.48 228.43L127.92 228.37C129.185 228.246 130.461 228.457 131.62 228.98" stroke="#2D0E0B" stroke-linecap="round" stroke-linejoin="round" fill="none" transform="translate(-80.35 -162.5)"/><path d="M107.37 212.93C111.09 212.53 114.28 215.39 115.48 218.7 115.83 219.7 114.31 220.07 113.96 219.12 113.01 216.5 110.5 214.24 107.58 214.48 104.5 214.74 102.9 217.95 102.83 220.72 102.83 221.156 102.476 221.51 102.04 221.51 101.604 221.51 101.25 221.156 101.25 220.72 101.34 217.11 103.51 213.35 107.37 212.93Z" stroke="#000000" stroke-miterlimit="10" transform="translate(-80.35 -162.5)"/><path d="M137.06 218.44C137.618 216.782 138.576 215.288 139.85 214.09 141.396 212.879 143.408 212.434 145.32 212.88 148.851 213.428 151.779 215.907 152.9 219.3 153.016 219.717 152.772 220.149 152.355 220.265 151.938 220.381 151.506 220.137 151.39 219.72 150.477 217.026 148.185 215.031 145.39 214.5 143.847 214.023 142.169 214.309 140.87 215.27 139.827 216.265 139.038 217.496 138.57 218.86 138.21 219.79 136.68 219.38 137.06 218.44Z" stroke="#000000" stroke-miterlimit="10" transform="translate(-80.35 -162.5)"/><circle cx="28.03" cy="53.18" r="14.92" stroke="#2D0E0B" stroke-width="2" stroke-miterlimit="10" fill="none"/><circle cx="65.18" cy="53.18" r="14.92" stroke="#2D0E0B" stroke-width="2" stroke-miterlimit="10" fill="none"/><line x1="50.27" y1="53.18" x2="42.81" y2="53.18" stroke="#2D0E0B" stroke-width="2" stroke-miterlimit="10" fill="none"/><path d="M166.07 201.48C168.596 206.838 169.852 212.707 169.74 218.63 169.692 219.041 169.32 219.336 168.909 219.289 168.563 219.248 168.29 218.976 168.25 218.63 168.369 212.973 167.182 207.364 164.78 202.24 164.38 201.37 165.66 200.62 166.07 201.48Z" fill="#2D0E0B" transform="translate(-80.35 -162.5)"/><path d="M86.54 216C88.6 208.82 87.77 200.88 91.54 194.19 91.7836 193.855 92.2527 193.781 92.5877 194.025 92.8752 194.234 92.9764 194.616 92.83 194.94 89.14 201.46 90 209.33 88 216.37 87.8978 216.773 87.4882 217.017 87.085 216.915 86.6818 216.813 86.4378 216.403 86.54 216Z" fill="#2D0E0B" transform="translate(-80.35 -162.5)"/><path d="M89.1 221.28C89.1 220.73 89.85 220.85 90.1 221.08 90.5334 221.56 90.7754 222.183 90.78 222.83 90.98 224.35 91.16 225.83 91.36 227.4 91.3653 227.674 91.5861 227.895 91.86 227.9 92.1361 227.9 92.36 227.676 92.36 227.4L91.96 224.26C91.9147 223.276 91.7467 222.302 91.46 221.36 91.2003 220.564 90.5094 219.986 89.68 219.87 88.848 219.813 88.1274 220.441 88.0704 221.273 88.0703 221.276 88.0701 221.278 88.07 221.28 88.07 221.92 89.07 221.92 89.07 221.28Z" fill="#2D0E0B" transform="translate(-80.35 -162.5)"/><path d="M166.82 225.2C166.71 224.52 166.41 223.77 165.64 223.64 164.87 223.51 164.26 224.21 163.96 224.85 163.583 225.706 163.249 226.581 162.96 227.47 162.62 228.38 162.31 229.29 162.02 230.2 161.82 230.82 162.79 231.08 163.02 230.47 163.49 229.02 164.02 227.58 164.56 226.17 164.75 225.7 164.93 224.99 165.38 224.69 165.83 224.39 165.9 225.22 165.94 225.47 166.012 225.731 166.282 225.884 166.543 225.812 166.545 225.811 166.548 225.811 166.55 225.81 166.811 225.732 166.965 225.464 166.9 225.2Z" fill="#2D0E0B" transform="translate(-80.35 -162.5)"/></svg>